<svg version="1.1" id="Layer_1" xmlns="http://www.w3.org/2000/svg" xmlns:xlink="http://www.w3.org/1999/xlink" x="0px" y="0px"
	 width="100%" viewBox="0 0 496 496" enable-background="new 0 0 496 496" xml:space="preserve">
<path fill="#000000" opacity="1.000000" stroke="none" 
	d="
M497.000000,284.531342 
	C490.308868,285.207977 486.729370,290.246002 483.442047,294.755829 
	C472.431793,309.860626 467.228546,327.002869 467.131287,345.703430 
	C467.090607,353.521851 467.426575,361.337311 466.074890,369.129211 
	C465.053619,375.015991 462.621643,380.208923 459.710846,385.295929 
	C457.509247,389.143646 453.646271,390.572510 449.860718,391.565918 
	C443.399536,393.261475 438.757355,397.612305 434.180908,401.834595 
	C431.367157,404.430542 428.796631,407.190765 425.424133,409.093292 
	C423.364014,410.255554 421.854523,411.901123 420.671295,414.051758 
	C417.017822,420.692352 414.645935,421.242584 406.774139,420.795868 
	C397.871063,420.290649 388.891754,420.088013 380.345306,423.960175 
	C376.029358,425.915619 373.531433,429.735687 370.162506,432.589081 
	C362.801483,438.823517 354.477814,441.138824 345.219971,440.899963 
	C339.001282,440.739532 333.703644,442.160156 328.563232,446.098877 
	C318.760132,453.610260 307.426178,454.375824 295.744965,451.373779 
	C289.887817,449.868500 283.840454,449.166901 277.938812,449.259430 
	C266.547058,449.438049 255.382996,447.485168 244.103470,446.729462 
	C237.551605,446.290527 231.350311,448.820068 224.795227,448.135406 
	C206.573715,446.232269 188.203552,446.933655 169.986908,445.636292 
	C148.926941,444.136414 130.962128,436.377106 117.683098,418.034821 
	C109.614243,406.889313 101.452507,396.304443 97.321548,383.027802 
	C96.450783,380.229187 94.565384,377.723175 93.013748,375.163391 
	C85.004623,361.950592 79.588806,348.041870 80.827316,332.184418 
	C81.773514,320.069641 79.448074,307.792572 81.967865,295.798126 
	C83.777138,287.185760 86.242020,278.654510 89.157478,270.347870 
	C91.813911,262.779266 94.066643,255.123672 95.823936,247.340591 
	C100.828964,225.173279 102.212746,202.754669 100.653328,180.055496 
	C100.079910,171.708725 101.834557,163.602081 104.081306,155.236084 
	C107.864372,141.149429 119.354851,135.954926 129.028687,128.375214 
	C132.594254,125.581482 135.862518,122.655334 138.739471,119.127037 
	C146.017731,110.200958 153.861801,101.911316 165.354782,98.272163 
	C169.682739,96.901741 174.081100,95.679489 178.571075,96.355316 
	C187.656860,97.722931 196.785904,97.771416 205.920410,97.836922 
	C209.657974,97.863731 213.138550,98.431366 216.494385,100.229012 
	C222.816818,103.615807 229.634109,103.444267 236.502762,102.553047 
	C267.507019,98.530197 298.491577,96.352188 329.378296,103.549919 
	C330.506927,103.812927 331.687408,103.852692 332.843414,103.998924 
	C339.553436,104.847679 346.025146,105.632904 352.430878,108.849754 
	C360.878052,113.091759 370.653870,115.561462 379.924866,115.532623 
	C397.625244,115.477577 409.222229,124.825020 418.384277,137.807114 
	C427.666901,150.960007 438.063660,163.117889 449.826294,173.812943 
	C457.648987,180.925644 465.796143,187.750748 473.672028,194.880280 
	C481.992676,202.412430 487.855133,211.570663 493.775848,220.814514 
	C494.489197,221.928223 495.046387,223.180969 496.687622,223.874954 
	C497.000000,244.020889 497.000000,264.041779 497.000000,284.531342 
M227.280502,291.208405 
	C236.015106,300.323700 247.263107,303.661682 259.318359,304.298706 
	C273.528839,305.049622 287.338562,303.226471 298.928680,293.849091 
	C305.192261,288.781372 308.402252,281.996704 308.960632,273.923431 
	C309.178741,270.769867 308.089050,269.267120 304.772034,269.326477 
	C298.775848,269.433807 292.769318,269.520874 286.780579,269.280579 
	C283.203186,269.136993 281.396667,270.362091 280.315308,273.872925 
	C278.078583,281.135193 272.578949,284.381409 263.998383,284.116821 
	C255.635605,283.858948 250.369690,280.020142 248.688339,272.459625 
	C247.046585,265.077179 247.018478,257.577362 248.583878,250.173645 
	C250.169586,242.673889 254.190598,239.113998 260.993042,238.667587 
	C271.685181,237.965927 276.390717,240.245255 279.104889,248.003906 
	C280.212830,251.171082 281.961304,252.683090 285.248962,252.664581 
	C291.913422,252.627060 298.579865,252.566910 305.242218,252.691055 
	C308.285187,252.747742 309.304779,251.699081 309.072754,248.563538 
	C308.097473,235.383621 300.658295,227.284088 288.997650,222.381805 
	C277.418762,217.513901 265.255981,217.309753 253.115051,218.712509 
	C243.707458,219.799454 235.395462,223.645309 228.166885,230.230423 
	C214.864426,242.348770 212.843369,275.278870 227.280502,291.208405 
M196.312469,270.689728 
	C203.649719,270.658569 203.650314,270.658569 203.653717,263.295929 
	C203.654633,261.304596 203.518997,259.302826 203.676224,257.324097 
	C204.019577,253.002930 201.968918,251.279755 197.811401,251.336456 
	C191.672684,251.420197 185.530075,251.251877 179.392334,251.364746 
	C162.702072,251.671661 165.731216,248.394165 165.306274,266.042603 
	C165.223190,269.492950 166.552933,270.783966 169.966339,270.731659 
	C178.427475,270.601959 186.891937,270.688843 196.312469,270.689728 
M324.262390,284.456268 
	C319.109314,287.083160 316.494659,291.040039 317.544769,295.255249 
	C318.636108,299.635956 321.297546,302.569977 326.118805,302.937958 
	C330.906189,303.303345 334.319550,300.947601 336.111298,296.467499 
	C338.503754,290.485535 332.398438,282.419159 324.262390,284.456268 
z"/>
</svg>